<svg width="150" height="150" viewBox="0 0 150 150" fill="none" xmlns="http://www.w3.org/2000/svg">
<rect width="150" height="150" fill="black" fill-opacity="0"/>
<rect width="150" height="150" fill="black" fill-opacity="0"/>
<path d="M150 0H0V150H150V0Z" fill="#E5E5E5"/>
<rect width="150" height="150" fill="black" fill-opacity="0"/>
<rect width="150" height="150" fill="black" fill-opacity="0"/>
<rect width="150" height="150" fill="black" fill-opacity="0"/>
<rect width="150" height="150" fill="black" fill-opacity="0"/>
<rect width="150" height="150" fill="black" fill-opacity="0"/>
<path fill-rule="evenodd" clip-rule="evenodd" d="M0 150H150V0H0V150Z" fill="#3C4551"/>
<rect width="110" height="110" fill="black" fill-opacity="0" transform="translate(22 22)"/>
<path d="M94.1016 22C93.2179 22 92.4654 22.6277 92.304 23.4967L91.4948 27.8079C91.2858 28.9263 90.4002 29.7612 89.2819 29.9922C88.2406 30.2085 87.2141 30.4788 86.2168 30.8014C85.1351 31.1534 83.9568 30.8753 83.2161 30.0137L80.373 26.6908C79.7974 26.0198 78.8262 25.8604 78.0599 26.304L75.9401 27.5286C75.1774 27.9686 74.8304 28.8949 75.1237 29.7272L76.5775 33.8594C76.9551 34.93 76.6081 36.0939 75.7611 36.8529C74.9727 37.5605 74.2272 38.3061 73.5195 39.0944C72.7605 39.9414 71.5967 40.2956 70.526 39.918L66.3867 38.457C65.5544 38.1637 64.6353 38.5071 64.1953 39.2734L62.9635 41.4004C62.5235 42.1631 62.6901 43.1379 63.3574 43.7135L63.7155 44.0215C68.0532 44.0948 71.7641 47.1976 72.5671 51.4766L72.7891 52.6439L73.5553 51.7415C75.2383 49.7835 77.5946 48.7188 80.0293 48.5905C83.3146 43.6222 88.935 40.3333 95.3333 40.3333C105.457 40.3333 113.667 48.543 113.667 58.6667C113.667 65.065 110.378 70.6855 105.41 73.9635C105.281 76.3982 104.216 78.7582 102.258 80.4375L101.356 81.2038L102.523 81.4258C106.802 82.2288 109.905 85.9397 109.979 90.2773L110.286 90.6354C110.862 91.3064 111.833 91.473 112.6 91.0293L114.727 89.7975C115.489 89.3575 115.836 88.4385 115.543 87.6061L114.082 83.4668C113.704 82.3961 114.059 81.2323 114.906 80.4733C115.694 79.7656 116.439 79.0201 117.147 78.2318C117.906 77.3848 119.07 77.0377 120.141 77.4154L124.273 78.8691C125.105 79.1625 126.031 78.8191 126.471 78.0527L127.696 75.9258C128.136 75.1631 127.977 74.1955 127.309 73.6198L123.986 70.7695C123.125 70.0289 122.847 68.8505 123.199 67.7689C123.521 66.7715 123.791 65.7523 124.008 64.7109C124.239 63.5963 125.074 62.7107 126.192 62.498L130.503 61.6816C131.372 61.5313 132 60.7821 132 59.8984V57.4349C132 56.5512 131.372 55.7987 130.503 55.6374L126.192 54.8281C125.074 54.6191 124.239 53.7336 124.008 52.6152C123.791 51.5739 123.521 50.5475 123.199 49.5501C122.847 48.4685 123.125 47.2901 123.986 46.5495L127.309 43.7064C127.98 43.1307 128.14 42.1596 127.696 41.3932L126.471 39.2734C126.031 38.5108 125.105 38.1637 124.273 38.457L120.141 39.9108C119.07 40.2885 117.906 39.9414 117.147 39.0944C116.439 38.3061 115.694 37.5605 114.906 36.8529C114.059 36.0939 113.704 34.93 114.082 33.8594L115.543 29.7201C115.836 28.8877 115.493 27.9686 114.727 27.5286L112.6 26.2969C111.837 25.8569 110.862 26.0234 110.286 26.6908L107.443 30.0137C106.703 30.8753 105.524 31.1534 104.443 30.8014C103.445 30.4788 102.419 30.2085 101.378 29.9922C100.263 29.7612 99.3774 28.9191 99.1647 27.8008L98.3555 23.4896C98.2015 22.6242 97.4488 22 96.5651 22H94.1016ZM61.1016 51.3333C60.2179 51.3333 59.4654 51.9576 59.304 52.8229L58.6237 56.4466C58.3414 57.9536 57.1407 59.0642 55.6374 59.3685C54.387 59.6215 53.1589 59.943 51.9635 60.3353C50.5115 60.812 48.9181 60.4555 47.9245 59.2969L45.5397 56.5111C44.964 55.8437 43.9892 55.6843 43.2266 56.1243L41.1068 57.349C40.3404 57.789 39.997 58.7152 40.2904 59.5475L41.5221 63.0352C42.0281 64.4798 41.5453 66.0334 40.4049 67.0527C39.4626 67.8961 38.5662 68.7888 37.7266 69.7311C36.7072 70.8715 35.1537 71.3543 33.709 70.8483L30.2142 69.6237C29.3819 69.3304 28.4628 69.6774 28.0228 70.4401L26.791 72.5599C26.3473 73.3262 26.5139 74.2974 27.1849 74.873L29.9707 77.2578C31.1294 78.2515 31.4858 79.8449 31.0091 81.2969C30.6168 82.4922 30.2953 83.7204 30.0423 84.9707C29.738 86.474 28.6274 87.6747 27.1204 87.957L23.4967 88.6374C22.6277 88.7987 22 89.5512 22 90.4349V92.8984C22 93.7821 22.6242 94.5346 23.4896 94.696L27.1133 95.3763C28.6203 95.6586 29.7308 96.8593 30.0352 98.3626C30.2882 99.6166 30.6096 100.841 31.002 102.036C31.4786 103.488 31.1222 105.082 29.9635 106.076L27.1777 108.46C26.5104 109.036 26.351 110.011 26.791 110.773L28.0156 112.893C28.4556 113.66 29.3819 114.003 30.2142 113.71L33.7018 112.478C35.1465 111.972 36.7001 112.455 37.7194 113.595C38.5627 114.537 39.4555 115.434 40.3978 116.273C41.5381 117.293 42.021 118.846 41.515 120.291L40.2904 123.786C39.997 124.618 40.3441 125.537 41.1068 125.977L43.2266 127.209C43.9929 127.653 44.964 127.486 45.5397 126.815L47.9245 124.029C48.9181 122.871 50.5115 122.514 51.9635 122.991C53.1589 123.383 54.387 123.705 55.6374 123.958C57.1407 124.262 58.3414 125.373 58.6237 126.88L59.304 130.503C59.4654 131.372 60.2179 132 61.1016 132H63.5651C64.4488 132 65.2015 131.372 65.3555 130.51L66.0358 126.887C66.3181 125.38 67.5188 124.269 69.0221 123.965C70.2761 123.712 71.5006 123.39 72.696 122.998C74.148 122.521 75.7414 122.878 76.735 124.036L79.1198 126.822C79.6955 127.49 80.6631 127.656 81.4258 127.216L83.5527 125.984C84.3191 125.544 84.6625 124.625 84.3691 123.793L83.1445 120.298C82.6385 118.854 83.1214 117.3 84.2617 116.281C85.2041 115.437 86.1004 114.545 86.9401 113.602C87.9594 112.462 89.5167 111.979 90.9577 112.485L94.4525 113.71C95.2848 114.003 96.2039 113.656 96.6439 112.893L97.8757 110.773C98.3193 110.007 98.1528 109.036 97.4818 108.46L94.696 106.076C93.5373 105.082 93.1809 103.488 93.6576 102.036C94.0499 100.841 94.3713 99.613 94.6243 98.3626C94.9287 96.8593 96.0392 95.6586 97.5462 95.3763L101.17 94.696C102.039 94.5346 102.667 93.7821 102.667 92.8984V90.4349C102.667 89.5512 102.039 88.8022 101.177 88.6445L97.5534 87.9642C96.0464 87.6819 94.9358 86.474 94.6315 84.9707C94.3785 83.7204 94.057 82.4922 93.6647 81.2969C93.188 79.8449 93.5445 78.2586 94.7031 77.265L97.4889 74.8802C98.1563 74.3045 98.3228 73.3297 97.8828 72.5671L96.651 70.4401C96.211 69.6738 95.292 69.3304 94.4596 69.6237L90.9648 70.8555C89.5202 71.3615 87.9666 70.8786 86.9473 69.7383C86.1039 68.7959 85.2112 67.8996 84.2689 67.0599C83.1285 66.0406 82.6457 64.487 83.1517 63.0423L84.3763 59.5475C84.6696 58.7152 84.3226 57.7961 83.5599 57.3561L81.4401 56.1243C80.6738 55.6807 79.7026 55.8472 79.127 56.5182L76.7422 59.304C75.7485 60.4627 74.1551 60.8191 72.7031 60.3424C71.5078 59.9501 70.2796 59.6287 69.0293 59.3757C67.526 59.0713 66.3253 57.9608 66.043 56.4538L65.3626 52.8301C65.2013 51.9611 64.4488 51.3333 63.5651 51.3333H61.1016ZM95.3333 55C94.3609 55 93.4282 55.3863 92.7406 56.0739C92.053 56.7616 91.6667 57.6942 91.6667 58.6667C91.6667 59.6391 92.053 60.5718 92.7406 61.2594C93.4282 61.947 94.3609 62.3333 95.3333 62.3333C96.3058 62.3333 97.2384 61.947 97.9261 61.2594C98.6137 60.5718 99 59.6391 99 58.6667C99 57.6942 98.6137 56.7616 97.9261 56.0739C97.2384 55.3863 96.3058 55 95.3333 55ZM62.3333 69.6667C74.4847 69.6667 84.3333 79.5153 84.3333 91.6667C84.3333 103.818 74.4847 113.667 62.3333 113.667C50.182 113.667 40.3333 103.818 40.3333 91.6667C40.3333 79.5153 50.182 69.6667 62.3333 69.6667ZM62.3333 84.3333C58.2817 84.3333 55 87.615 55 91.6667C55 95.7183 58.2817 99 62.3333 99C66.385 99 69.6667 95.7183 69.6667 91.6667C69.6667 87.615 66.385 84.3333 62.3333 84.3333Z" fill="white"/>
</svg>
